<svg version="1.1" xmlns="http://www.w3.org/2000/svg" xmlns:xlink="http://www.w3.org/1999/xlink" width="33.263" height="26"><g transform="translate(-163.386,-258.541)"><g data-paper-data="{&quot;isPaintingLayer&quot;:true}" fill="none" fill-rule="nonzero" stroke="none" stroke-width="1" stroke-linecap="none" stroke-linejoin="miter" stroke-miterlimit="none" stroke-dasharray="" stroke-dashoffset="0" font-family="none" font-weight="none" font-size="none" text-anchor="none" style="mix-blend-mode: normal"><path d="M165.807,258.541h28.42c1.337,0 2.422,1.085 2.422,2.422v21.156c0,1.337 -1.085,2.422 -2.422,2.422h-28.42c-1.336,0 -2.421,-1.085 -2.421,-2.422v-21.156c0,-1.337 1.085,-2.422 2.421,-2.422z" data-paper-data="{&quot;origPos&quot;:null}" fill="#e8e8e8" stroke-linecap="square" stroke-miterlimit="2"/><path d="M175.706,267.072h6.622v1.316v0c-0.23333,0.18667 -0.462,0.38733 -0.686,0.602v0v0c-0.224,0.21467 -0.52033,0.56 -0.889,1.036v0v0c-0.36867,0.476 -0.693,0.98 -0.973,1.512v0v0c-0.28,0.532 -0.54367,1.20633 -0.791,2.023v0v0c-0.24733,0.81667 -0.413,1.67767 -0.497,2.583v0h-1.414v0c0.056,-0.71867 0.168,-1.41633 0.336,-2.093v0v0c0.168,-0.67667 0.364,-1.267 0.588,-1.771v0v0c0.224,-0.504 0.46433,-0.97767 0.721,-1.421v0v0c0.25667,-0.44333 0.50867,-0.81667 0.756,-1.12v0v0c0.24733,-0.30333 0.47133,-0.56233 0.672,-0.777v0v0c0.20067,-0.21467 0.36167,-0.37333 0.483,-0.476v0l0.182,-0.154h-5.11z" data-paper-data="{&quot;origPos&quot;:null}" fill="#000000" stroke-linecap="butt" stroke-miterlimit="10"/></g></g></svg>