<svg version="1.1" xmlns="http://www.w3.org/2000/svg" xmlns:xlink="http://www.w3.org/1999/xlink" width="181.986" height="335.519"><defs><linearGradient x1="154.007" y1="64.2405" x2="332.007" y2="64.2405" gradientUnits="userSpaceOnUse" id="color-1"><stop offset="0.0087" stop-color="#1b6cb3"/><stop offset="0.98261" stop-color="#4adbe8"/></linearGradient><linearGradient x1="153.10548" y1="95.66071" x2="331.82537" y2="96.34524" gradientUnits="userSpaceOnUse" id="color-2"><stop offset="0.0087" stop-color="#1b6cb3"/><stop offset="0.98261" stop-color="#4adbe8"/></linearGradient></defs><g transform="translate(-152.007,-14.481)"><g data-paper-data="{&quot;isPaintingLayer&quot;:true}" fill="none" fill-rule="nonzero" stroke="none" stroke-width="none" stroke-linecap="none" stroke-linejoin="miter" stroke-miterlimit="none" stroke-dasharray="" stroke-dashoffset="0" font-family="none" font-weight="none" font-size="none" text-anchor="none" style="mix-blend-mode: normal"><path d="M170.106,15.481h145.788c9.438,0 17.099,7.662 17.099,17.099v299.321c0,9.437 -7.661,17.099 -17.099,17.099h-145.788c-9.438,0 -17.099,-7.662 -17.099,-17.099v-299.321c0,-9.437 7.661,-17.099 17.099,-17.099z" data-paper-data="{&quot;origPos&quot;:null}" fill="#ffffff" stroke="none" stroke-width="1" stroke-linecap="butt" stroke-miterlimit="10"/><path d="M170.106,15.481h145.788c9.438,0 17.099,7.662 17.099,17.099v299.321c0,9.437 -7.661,17.099 -17.099,17.099h-145.788c-9.438,0 -17.099,-7.662 -17.099,-17.099v-299.321c0,-9.437 7.661,-17.099 17.099,-17.099z" data-paper-data="{&quot;origPos&quot;:null}" fill="none" stroke="#1b6cb3" stroke-width="2" stroke-linecap="square" stroke-miterlimit="2"/><path d="M170.245,16.481h145.524c8.962,0 16.238,7.276 16.238,16.238v63.043c0,8.962 -7.276,16.238 -16.238,16.238h-145.524c-8.962,0 -16.238,-7.276 -16.238,-16.238v-63.043c0,-8.962 7.276,-16.238 16.238,-16.238z" data-paper-data="{&quot;origPos&quot;:null}" fill="url(#color-1)" stroke="none" stroke-width="1" stroke-linecap="square" stroke-miterlimit="2"/><path d="M154.007,113v-23h178v23z" data-paper-data="{&quot;origPos&quot;:null}" fill="url(#color-2)" stroke="none" stroke-width="1" stroke-linecap="butt" stroke-miterlimit="10"/><path d="M161,131v7l-4,-3.182z" data-paper-data="{&quot;origPos&quot;:null}" fill="#e8e8e8" stroke="none" stroke-width="1" stroke-linecap="butt" stroke-miterlimit="10"/></g></g></svg>