<svg version="1.1" xmlns="http://www.w3.org/2000/svg" xmlns:xlink="http://www.w3.org/1999/xlink" width="33.263" height="20.459"><g transform="translate(-205.351,-123.541)"><g data-paper-data="{&quot;isPaintingLayer&quot;:true}" fill="none" fill-rule="nonzero" stroke="none" stroke-width="1" stroke-linecap="none" stroke-linejoin="miter" stroke-miterlimit="none" stroke-dasharray="" stroke-dashoffset="0" font-family="none" font-weight="none" font-size="none" text-anchor="none" style="mix-blend-mode: normal"><path d="M207.499,123.541h28.967c1.186,0 2.148,0.963 2.148,2.148v16.163c0,1.185 -0.962,2.148 -2.148,2.148h-28.967c-1.185,0 -2.148,-0.963 -2.148,-2.148v-16.163c0,-1.185 0.963,-2.148 2.148,-2.148z" data-paper-data="{&quot;origPos&quot;:null}" fill="#e8e8e8" stroke-linecap="square" stroke-miterlimit="2"/><path d="M216.092,133.326v0v0c-0.40667,0 -0.75167,0.14667 -1.035,0.44v0v0c-0.28333,0.29333 -0.425,0.70667 -0.425,1.24v0v0c0,0.52667 0.14167,0.94 0.425,1.24v0v0c0.28333,0.3 0.63167,0.45 1.045,0.45v0v0c0.4,0 0.705,-0.1 0.915,-0.3v0v0c0.21,-0.2 0.35167,-0.43 0.425,-0.69v0l0.83,0.36v0c-0.13333,0.4 -0.385,0.75 -0.755,1.05v0v0c-0.37,0.3 -0.84167,0.45 -1.415,0.45v0v0c-0.7,0 -1.28,-0.24333 -1.74,-0.73v0v0c-0.46,-0.48667 -0.69,-1.09667 -0.69,-1.83v0v0c0,-0.74667 0.23,-1.35833 0.69,-1.835v0v0c0.46,-0.47667 1.03667,-0.715 1.73,-0.715v0v0c0.58667,0 1.06167,0.15 1.425,0.45v0v0c0.36333,0.3 0.60167,0.66 0.715,1.08v0l-0.85,0.36v0c-0.07333,-0.28 -0.21333,-0.52 -0.42,-0.72v0v0c-0.20667,-0.2 -0.49667,-0.3 -0.87,-0.3zM220.317,136.271v0v0c0.29,0.30333 0.645,0.455 1.065,0.455v0v0c0.42,0 0.775,-0.15167 1.065,-0.455v0v0c0.29,-0.30333 0.435,-0.725 0.435,-1.265v0v0c0,-0.53333 -0.145,-0.95167 -0.435,-1.255v0v0c-0.29,-0.30333 -0.645,-0.455 -1.065,-0.455v0v0c-0.42,0 -0.775,0.15167 -1.065,0.455v0v0c-0.29,0.30333 -0.435,0.72167 -0.435,1.255v0v0c0,0.54 0.145,0.96167 0.435,1.265zM219.617,133.181v0v0c0.46333,-0.48333 1.05167,-0.725 1.765,-0.725v0v0c0.71333,0 1.30167,0.24167 1.765,0.725v0v0c0.46333,0.48333 0.695,1.09167 0.695,1.825v0v0c0,0.74 -0.23,1.35167 -0.69,1.835v0v0c-0.46,0.48333 -1.05,0.725 -1.77,0.725v0v0c-0.72,0 -1.31,-0.24167 -1.77,-0.725v0v0c-0.46,-0.48333 -0.69,-1.095 -0.69,-1.835v0v0c0,-0.73333 0.23167,-1.34167 0.695,-1.825zM224.592,136.166v0l0.85,-0.3v0c0.03333,0.26 0.14667,0.475 0.34,0.645v0v0c0.19333,0.17 0.45333,0.255 0.78,0.255v0v0c0.25333,0 0.45333,-0.06167 0.6,-0.185v0v0c0.14667,-0.12333 0.22,-0.275 0.22,-0.455v0v0c0,-0.32 -0.20667,-0.52667 -0.62,-0.62v0l-0.82,-0.18v0c-0.37333,-0.08 -0.66667,-0.24 -0.88,-0.48v0v0c-0.21333,-0.24 -0.32,-0.53 -0.32,-0.87v0v0c0,-0.41333 0.16833,-0.77 0.505,-1.07v0v0c0.33667,-0.3 0.73833,-0.45 1.205,-0.45v0v0c0.30667,0 0.58,0.045 0.82,0.135v0v0c0.24,0.09 0.42667,0.20833 0.56,0.355v0v0c0.13333,0.14667 0.23333,0.28333 0.3,0.41v0v0c0.06667,0.12667 0.11667,0.25667 0.15,0.39v0l-0.83,0.31v0c-0.01333,-0.08 -0.03667,-0.15833 -0.07,-0.235v0v0c-0.03333,-0.07667 -0.085,-0.16167 -0.155,-0.255v0v0c-0.07,-0.09333 -0.17167,-0.16833 -0.305,-0.225v0v0c-0.13333,-0.05667 -0.29,-0.085 -0.47,-0.085v0v0c-0.23333,0 -0.425,0.06333 -0.575,0.19v0v0c-0.15,0.12667 -0.225,0.27667 -0.225,0.45v0v0c0,0.30667 0.18333,0.5 0.55,0.58v0l0.78,0.17v0c0.42667,0.09333 0.755,0.265 0.985,0.515v0v0c0.23,0.25 0.345,0.555 0.345,0.915v0v0c0,0.38 -0.155,0.72333 -0.465,1.03v0v0c-0.31,0.30667 -0.74167,0.46 -1.295,0.46v0v0c-0.59333,0 -1.05667,-0.14833 -1.39,-0.445v0v0c-0.33333,-0.29667 -0.52333,-0.615 -0.57,-0.955z" data-paper-data="{&quot;origPos&quot;:null}" fill="#000000" stroke-linecap="butt" stroke-miterlimit="10"/></g></g></svg>