<svg version="1.1" xmlns="http://www.w3.org/2000/svg" xmlns:xlink="http://www.w3.org/1999/xlink" width="33.263" height="20.459"><g transform="translate(-247.351,-123.541)"><g data-paper-data="{&quot;isPaintingLayer&quot;:true}" fill="none" fill-rule="nonzero" stroke="none" stroke-width="1" stroke-linecap="none" stroke-linejoin="miter" stroke-miterlimit="none" stroke-dasharray="" stroke-dashoffset="0" font-family="none" font-weight="none" font-size="none" text-anchor="none" style="mix-blend-mode: normal"><path d="M249.499,123.541h28.967c1.186,0 2.148,0.963 2.148,2.148v16.163c0,1.185 -0.962,2.148 -2.148,2.148h-28.967c-1.185,0 -2.148,-0.963 -2.148,-2.148v-16.163c0,-1.185 0.963,-2.148 2.148,-2.148z" data-paper-data="{&quot;origPos&quot;:null}" fill="#e8e8e8" stroke-linecap="square" stroke-miterlimit="2"/><path d="M256.367,134.586v0v2.83h-0.94v-7.24h0.94v2.99v0c0.32,-0.46667 0.80667,-0.7 1.46,-0.7v0v0c0.55333,0 0.97833,0.17667 1.275,0.53v0v0c0.29667,0.35333 0.445,0.81 0.445,1.37v0v3.05h-0.94v-2.89v0c0,-0.80667 -0.37333,-1.21 -1.12,-1.21v0v0c-0.34667,0 -0.61667,0.11833 -0.81,0.355v0v0c-0.19333,0.23667 -0.29667,0.54167 -0.31,0.915zM265.377,132.606l-3.13,6.82h-1.03l1.2,-2.54l-2.07,-4.28h1.08l1.5,3.32l1.44,-3.32zM267.207,136.766v2.55h-0.93v-6.71h0.91v0.75v0c0.14,-0.25333 0.35,-0.46 0.63,-0.62v0v0c0.28,-0.16 0.60667,-0.24 0.98,-0.24v0v0c0.69333,0 1.235,0.23667 1.625,0.71v0v0c0.39,0.47333 0.585,1.07333 0.585,1.8v0v0c0,0.73333 -0.20167,1.34 -0.605,1.82v0v0c-0.40333,0.48 -0.94833,0.72 -1.635,0.72v0v0c-0.35333,0 -0.66667,-0.07333 -0.94,-0.22v0v0c-0.27333,-0.14667 -0.48,-0.33333 -0.62,-0.56zM270.047,135.006v0v0c0,-0.48667 -0.12833,-0.88833 -0.385,-1.205v0v0c-0.25667,-0.31667 -0.60167,-0.475 -1.035,-0.475v0v0c-0.42667,0 -0.77167,0.15833 -1.035,0.475v0v0c-0.26333,0.31667 -0.395,0.71833 -0.395,1.205v0v0c0,0.5 0.13167,0.90833 0.395,1.225v0v0c0.26333,0.31667 0.60833,0.475 1.035,0.475v0v0c0.42667,0 0.77,-0.15833 1.03,-0.475v0v0c0.26,-0.31667 0.39,-0.725 0.39,-1.225z" data-paper-data="{&quot;origPos&quot;:null}" fill="#000000" stroke-linecap="butt" stroke-miterlimit="10"/></g></g></svg>