<svg version="1.1" xmlns="http://www.w3.org/2000/svg" xmlns:xlink="http://www.w3.org/1999/xlink" width="33.263" height="26"><g transform="translate(-163.386,-153.5)"><g data-paper-data="{&quot;isPaintingLayer&quot;:true}" fill="none" fill-rule="nonzero" stroke="none" stroke-width="1" stroke-linecap="none" stroke-linejoin="miter" stroke-miterlimit="none" stroke-dasharray="" stroke-dashoffset="0" font-family="none" font-weight="none" font-size="none" text-anchor="none" style="mix-blend-mode: normal"><path d="M165.807,153.5h28.42c1.337,0 2.422,1.085 2.422,2.422v21.156c0,1.337 -1.085,2.422 -2.422,2.422h-28.42c-1.336,0 -2.421,-1.085 -2.421,-2.422v-21.156c0,-1.337 1.085,-2.422 2.421,-2.422z" data-paper-data="{&quot;origPos&quot;:null}" fill="#e8e8e8" stroke-linecap="square" stroke-miterlimit="2"/><path d="M178.729,170.874h-1.272l-0.924,-2.376h-3.768l-0.9,2.376h-1.26l3.384,-8.508h1.356zM176.113,167.406l-1.476,-3.816l-1.452,3.816zM183.313,171.054v0v0c-1.16,0 -2.154,-0.4 -2.982,-1.2v0v0c-0.828,-0.8 -1.242,-1.88 -1.242,-3.24v0v0c0,-0.912 0.208,-1.712 0.624,-2.4v0v0c0.416,-0.688 0.94,-1.198 1.572,-1.53v0v0c0.632,-0.332 1.308,-0.498 2.028,-0.498v0v0c0.96,0 1.77,0.242 2.43,0.726v0v0c0.66,0.484 1.098,1.142 1.314,1.974v0l-1.092,0.384v0c-0.16,-0.64 -0.468,-1.134 -0.924,-1.482v0v0c-0.456,-0.348 -1.032,-0.522 -1.728,-0.522v0v0c-0.832,0 -1.544,0.294 -2.136,0.882v0v0c-0.592,0.588 -0.888,1.41 -0.888,2.466v0v0c0,1.056 0.296,1.88 0.888,2.472v0v0c0.592,0.592 1.304,0.888 2.136,0.888v0v0c0.696,0 1.276,-0.186 1.74,-0.558v0v0c0.464,-0.372 0.788,-0.866 0.972,-1.482v0l1.044,0.384v0c-0.232,0.824 -0.678,1.486 -1.338,1.986v0v0c-0.66,0.5 -1.466,0.75 -2.418,0.75z" data-paper-data="{&quot;origPos&quot;:null}" fill="#000000" stroke-linecap="butt" stroke-miterlimit="10"/></g></g></svg>