<svg version="1.1" xmlns="http://www.w3.org/2000/svg" xmlns:xlink="http://www.w3.org/1999/xlink" width="33.263" height="26"><g transform="translate(-205.386,-293.541)"><g data-paper-data="{&quot;isPaintingLayer&quot;:true}" fill="none" fill-rule="nonzero" stroke="none" stroke-width="1" stroke-linecap="none" stroke-linejoin="miter" stroke-miterlimit="none" stroke-dasharray="" stroke-dashoffset="0" font-family="none" font-weight="none" font-size="none" text-anchor="none" style="mix-blend-mode: normal"><path d="M207.807,293.541h28.42c1.337,0 2.422,1.085 2.422,2.422v21.156c0,1.337 -1.085,2.422 -2.422,2.422h-28.42c-1.336,0 -2.421,-1.085 -2.421,-2.422v-21.156c0,-1.337 1.085,-2.422 2.421,-2.422z" data-paper-data="{&quot;origPos&quot;:null}" fill="#e8e8e8" stroke-linecap="square" stroke-miterlimit="2"/><path d="M220.324,310.934v0v0c-0.18667,-0.18667 -0.28,-0.41533 -0.28,-0.686v0v0c0,-0.27067 0.09333,-0.50167 0.28,-0.693v0v0c0.18667,-0.19133 0.41533,-0.287 0.686,-0.287v0v0c0.27067,0 0.50167,0.09567 0.693,0.287v0v0c0.19133,0.19133 0.287,0.42233 0.287,0.693v0v0c0,0.27067 -0.09567,0.49933 -0.287,0.686v0v0c-0.19133,0.18667 -0.42233,0.28 -0.693,0.28v0v0c-0.27067,0 -0.49933,-0.09333 -0.686,-0.28z" data-paper-data="{&quot;origPos&quot;:null}" fill="#000000" stroke-linecap="butt" stroke-miterlimit="10"/></g></g></svg>