<svg version="1.1" xmlns="http://www.w3.org/2000/svg" xmlns:xlink="http://www.w3.org/1999/xlink" width="33.263" height="26"><g transform="translate(-163.386,-293.541)"><g data-paper-data="{&quot;isPaintingLayer&quot;:true}" fill="none" fill-rule="nonzero" stroke="none" stroke-width="1" stroke-linecap="none" stroke-linejoin="miter" stroke-miterlimit="none" stroke-dasharray="" stroke-dashoffset="0" font-family="none" font-weight="none" font-size="none" text-anchor="none" style="mix-blend-mode: normal"><path d="M165.807,293.541h28.42c1.337,0 2.422,1.085 2.422,2.422v21.156c0,1.337 -1.085,2.422 -2.422,2.422h-28.42c-1.336,0 -2.421,-1.085 -2.421,-2.422v-21.156c0,-1.337 1.085,-2.422 2.421,-2.422z" data-paper-data="{&quot;origPos&quot;:null}" fill="#e8e8e8" stroke-linecap="square" stroke-miterlimit="2"/><path d="M177.575,303.668v0c-0.532,0.56 -0.798,1.54 -0.798,2.94v0v0c0,1.4 0.266,2.38 0.798,2.94v0v0c0.37333,0.392 0.854,0.588 1.442,0.588v0v0c0.588,0 1.06867,-0.196 1.442,-0.588v0v0c0.532,-0.56 0.798,-1.54 0.798,-2.94v0v0c0,-1.4 -0.266,-2.38 -0.798,-2.94v0v0c-0.37333,-0.392 -0.854,-0.588 -1.442,-0.588v0v0c-0.588,0 -1.06867,0.196 -1.442,0.588zM176.231,309.898v0c-0.54133,-0.80267 -0.812,-1.89933 -0.812,-3.29v0v0c0,-1.39067 0.27067,-2.48733 0.812,-3.29v0v0c0.644,-0.97067 1.57267,-1.456 2.786,-1.456v0v0c1.21333,0 2.142,0.48533 2.786,1.456v0v0c0.54133,0.80267 0.812,1.89933 0.812,3.29v0v0c0,1.39067 -0.27067,2.48733 -0.812,3.29v0v0c-0.644,0.97067 -1.57267,1.456 -2.786,1.456v0v0c-1.21333,0 -2.142,-0.48533 -2.786,-1.456z" data-paper-data="{&quot;origPos&quot;:null}" fill="#000000" stroke-linecap="butt" stroke-miterlimit="10"/></g></g></svg>