<svg version="1.1" xmlns="http://www.w3.org/2000/svg" xmlns:xlink="http://www.w3.org/1999/xlink" width="33.263" height="26"><g transform="translate(-247.386,-258.541)"><g data-paper-data="{&quot;isPaintingLayer&quot;:true}" fill="none" fill-rule="nonzero" stroke="none" stroke-width="1" stroke-linecap="none" stroke-linejoin="miter" stroke-miterlimit="none" stroke-dasharray="" stroke-dashoffset="0" font-family="none" font-weight="none" font-size="none" text-anchor="none" style="mix-blend-mode: normal"><path d="M249.807,258.541h28.42c1.337,0 2.422,1.085 2.422,2.422v21.156c0,1.337 -1.085,2.422 -2.422,2.422h-28.42c-1.336,0 -2.421,-1.085 -2.421,-2.422v-21.156c0,-1.337 1.085,-2.422 2.421,-2.422z" data-paper-data="{&quot;origPos&quot;:null}" fill="#e8e8e8" stroke-linecap="square" stroke-miterlimit="2"/><path d="M259.748,275.822v0l0.448,-1.134v0c0.476,0.28933 1.02667,0.434 1.652,0.434v0v0c1.036,0 1.813,-0.29633 2.331,-0.889v0v0c0.518,-0.59267 0.791,-1.36967 0.819,-2.331v0v0c-0.17733,0.32667 -0.469,0.602 -0.875,0.826v0v0c-0.406,0.224 -0.89833,0.336 -1.477,0.336v0v0c-0.84,0 -1.57267,-0.273 -2.198,-0.819v0v0c-0.62533,-0.546 -0.938,-1.295 -0.938,-2.247v0v0c0,-0.91467 0.329,-1.666 0.987,-2.254v0v0c0.658,-0.588 1.44433,-0.882 2.359,-0.882v0v0c0.97067,0 1.80133,0.35467 2.492,1.064v0v0c0.69067,0.70933 1.036,1.74533 1.036,3.108v0v0c0,1.69867 -0.38033,3.01 -1.141,3.934v0v0c-0.76067,0.924 -1.89233,1.386 -3.395,1.386v0v0c-0.35467,0 -0.73733,-0.05133 -1.148,-0.154v0v0c-0.41067,-0.10267 -0.728,-0.22867 -0.952,-0.378zM264.816,269.97v0v0c0,-0.56 -0.196,-1.01733 -0.588,-1.372v0v0c-0.392,-0.35467 -0.84933,-0.532 -1.372,-0.532v0v0c-0.532,0 -0.99167,0.175 -1.379,0.525v0v0c-0.38733,0.35 -0.581,0.80967 -0.581,1.379v0v0c0,0.588 0.19133,1.05467 0.574,1.4v0v0c0.38267,0.34533 0.84467,0.518 1.386,0.518v0v0c0.532,0 0.99167,-0.175 1.379,-0.525v0v0c0.38733,-0.35 0.581,-0.81433 0.581,-1.393z" data-paper-data="{&quot;origPos&quot;:null}" fill="#000000" stroke-linecap="butt" stroke-miterlimit="10"/></g></g></svg>