<svg version="1.1" xmlns="http://www.w3.org/2000/svg" xmlns:xlink="http://www.w3.org/1999/xlink" width="33.263" height="20.459"><g transform="translate(-163.386,-123.541)"><g data-paper-data="{&quot;isPaintingLayer&quot;:true}" fill="none" fill-rule="nonzero" stroke="none" stroke-width="1" stroke-linecap="none" stroke-linejoin="miter" stroke-miterlimit="none" stroke-dasharray="" stroke-dashoffset="0" font-family="none" font-weight="none" font-size="none" text-anchor="none" style="mix-blend-mode: normal"><path d="M165.534,123.541h28.967c1.185,0 2.148,0.963 2.148,2.148v16.163c0,1.185 -0.963,2.148 -2.148,2.148h-28.967c-1.186,0 -2.148,-0.963 -2.148,-2.148v-16.163c0,-1.185 0.962,-2.148 2.148,-2.148z" data-paper-data="{&quot;origPos&quot;:null}" fill="#e8e8e8" stroke-linecap="square" stroke-miterlimit="2"/><path d="M173.017,131.086h0.86v1.52h1.04v0.85h-1.04v2.5v0c0,0.22667 0.05167,0.39333 0.155,0.5v0v0c0.10333,0.10667 0.275,0.16 0.515,0.16v0v0c0.14,0 0.26333,-0.01333 0.37,-0.04v0v0.8v0c-0.16,0.06 -0.37333,0.09 -0.64,0.09v0v0c-0.41333,0 -0.74,-0.12 -0.98,-0.36v0v0c-0.24,-0.24 -0.36,-0.57667 -0.36,-1.01v0v-2.64h-0.92v-0.85h0.26v0c0.24667,0 0.43167,-0.06833 0.555,-0.205v0v0c0.12333,-0.13667 0.185,-0.315 0.185,-0.535v0zM175.867,136.126v0v0c0,-0.41333 0.13333,-0.745 0.4,-0.995v0v0c0.26667,-0.25 0.62,-0.405 1.06,-0.465v0l1.3,-0.19v0c0.24667,-0.03333 0.37,-0.15333 0.37,-0.36v0v0c0,-0.25333 -0.08667,-0.46 -0.26,-0.62v0v0c-0.17333,-0.16 -0.43333,-0.24 -0.78,-0.24v0v0c-0.32,0 -0.57333,0.08833 -0.76,0.265v0v0c-0.18667,0.17667 -0.29667,0.41167 -0.33,0.705v0l-0.9,-0.21v0c0.04667,-0.46 0.25667,-0.835 0.63,-1.125v0v0c0.37333,-0.29 0.82,-0.435 1.34,-0.435v0v0c0.68,0 1.18333,0.165 1.51,0.495v0v0c0.32667,0.33 0.49,0.75167 0.49,1.265v0v2.41v0c0,0.28667 0.02,0.55 0.06,0.79v0h-0.92v0c-0.03333,-0.2 -0.05,-0.41667 -0.05,-0.65v0v0c-0.13333,0.21333 -0.32833,0.4 -0.585,0.56v0v0c-0.25667,0.16 -0.57833,0.24 -0.965,0.24v0v0c-0.47333,0 -0.86,-0.14167 -1.16,-0.425v0v0c-0.3,-0.28333 -0.45,-0.62167 -0.45,-1.015zM177.607,136.776v0v0c0.42,0 0.75667,-0.11333 1.01,-0.34v0v0c0.25333,-0.22667 0.38,-0.58667 0.38,-1.08v0v-0.22l-1.47,0.22v0c-0.21333,0.03333 -0.38333,0.11 -0.51,0.23v0v0c-0.12667,0.12 -0.19,0.28333 -0.19,0.49v0v0c0,0.18667 0.07167,0.35 0.215,0.49v0v0c0.14333,0.14 0.33167,0.21 0.565,0.21zM182.337,134.636v0v2.78h-0.94v-4.81h0.92v0.69v0c0.32,-0.55333 0.81333,-0.83 1.48,-0.83v0v0c0.55333,0 0.97833,0.17667 1.275,0.53v0v0c0.29667,0.35333 0.445,0.81 0.445,1.37v0v3.05h-0.94v-2.89v0c0,-0.80667 -0.37333,-1.21 -1.12,-1.21v0v0c-0.35333,0 -0.62833,0.125 -0.825,0.375v0v0c-0.19667,0.25 -0.295,0.565 -0.295,0.945z" data-paper-data="{&quot;origPos&quot;:null}" fill="#000000" stroke-linecap="butt" stroke-miterlimit="10"/></g></g></svg>