<svg version="1.1" xmlns="http://www.w3.org/2000/svg" xmlns:xlink="http://www.w3.org/1999/xlink" width="33.263" height="26"><g transform="translate(-247.386,-223.541)"><g data-paper-data="{&quot;isPaintingLayer&quot;:true}" fill="none" fill-rule="nonzero" stroke="none" stroke-width="1" stroke-linecap="none" stroke-linejoin="miter" stroke-miterlimit="none" stroke-dasharray="" stroke-dashoffset="0" font-family="none" font-weight="none" font-size="none" text-anchor="none" style="mix-blend-mode: normal"><path d="M249.807,223.541h28.42c1.337,0 2.422,1.085 2.422,2.422v21.156c0,1.337 -1.085,2.422 -2.422,2.422h-28.42c-1.336,0 -2.421,-1.085 -2.421,-2.422v-21.156c0,-1.337 1.085,-2.422 2.421,-2.422z" data-paper-data="{&quot;origPos&quot;:null}" fill="#e8e8e8" stroke-linecap="square" stroke-miterlimit="2"/><path d="M266.307,232.366v0l-0.42,1.12v0c-0.448,-0.26133 -0.98933,-0.392 -1.624,-0.392v0v0c-0.924,0 -1.673,0.30333 -2.247,0.91v0v0c-0.574,0.60667 -0.889,1.386 -0.945,2.338v0v0c0.20533,-0.336 0.51567,-0.616 0.931,-0.84v0v0c0.41533,-0.224 0.903,-0.336 1.463,-0.336v0v0c0.924,0 1.673,0.27533 2.247,0.826v0v0c0.574,0.55067 0.861,1.30667 0.861,2.268v0v0c0,0.94267 -0.32667,1.694 -0.98,2.254v0v0c-0.65333,0.56 -1.44667,0.84 -2.38,0.84v0v0c-0.97067,0 -1.80367,-0.35233 -2.499,-1.057v0v0c-0.69533,-0.70467 -1.043,-1.75233 -1.043,-3.143v0v0c0,-1.64267 0.43867,-2.93533 1.316,-3.878v0v0c0.87733,-0.94267 1.99733,-1.414 3.36,-1.414v0v0c0.83067,0 1.484,0.168 1.96,0.504zM261.267,238.26v0v0c0,0.56933 0.196,1.029 0.588,1.379v0v0c0.392,0.35 0.84933,0.525 1.372,0.525v0v0c0.55067,0 1.015,-0.17267 1.393,-0.518v0v0c0.378,-0.34533 0.567,-0.80733 0.567,-1.386v0v0c0,-0.588 -0.189,-1.05467 -0.567,-1.4v0v0c-0.378,-0.34533 -0.84233,-0.518 -1.393,-0.518v0v0c-0.55067,0 -1.015,0.17267 -1.393,0.518v0v0c-0.378,0.34533 -0.567,0.812 -0.567,1.4z" data-paper-data="{&quot;origPos&quot;:null}" fill="#000000" stroke-linecap="butt" stroke-miterlimit="10"/></g></g></svg>