<svg version="1.1" xmlns="http://www.w3.org/2000/svg" xmlns:xlink="http://www.w3.org/1999/xlink" width="33.263" height="20.459"><g transform="translate(-289.351,-123.541)"><g data-paper-data="{&quot;isPaintingLayer&quot;:true}" fill="none" fill-rule="nonzero" stroke="none" stroke-width="1" stroke-linecap="none" stroke-linejoin="miter" stroke-miterlimit="none" stroke-dasharray="" stroke-dashoffset="0" font-family="none" font-weight="none" font-size="none" text-anchor="none" style="mix-blend-mode: normal"><path d="M291.499,123.541h28.967c1.186,0 2.148,0.963 2.148,2.148v16.163c0,1.185 -0.962,2.148 -2.148,2.148h-28.967c-1.185,0 -2.148,-0.963 -2.148,-2.148v-16.163c0,-1.185 0.963,-2.148 2.148,-2.148z" data-paper-data="{&quot;origPos&quot;:null}" fill="#e8e8e8" stroke-linecap="square" stroke-miterlimit="2"/><path d="M299.032,136.166v0l0.85,-0.3v0c0.03333,0.26 0.14667,0.475 0.34,0.645v0v0c0.19333,0.17 0.45333,0.255 0.78,0.255v0v0c0.25333,0 0.45333,-0.06167 0.6,-0.185v0v0c0.14667,-0.12333 0.22,-0.275 0.22,-0.455v0v0c0,-0.32 -0.20667,-0.52667 -0.62,-0.62v0l-0.82,-0.18v0c-0.37333,-0.08 -0.66667,-0.24 -0.88,-0.48v0v0c-0.21333,-0.24 -0.32,-0.53 -0.32,-0.87v0v0c0,-0.41333 0.16833,-0.77 0.505,-1.07v0v0c0.33667,-0.3 0.73833,-0.45 1.205,-0.45v0v0c0.30667,0 0.58,0.045 0.82,0.135v0v0c0.24,0.09 0.42667,0.20833 0.56,0.355v0v0c0.13333,0.14667 0.23333,0.28333 0.3,0.41v0v0c0.06667,0.12667 0.11667,0.25667 0.15,0.39v0l-0.83,0.31v0c-0.01333,-0.08 -0.03667,-0.15833 -0.07,-0.235v0v0c-0.03333,-0.07667 -0.085,-0.16167 -0.155,-0.255v0v0c-0.07,-0.09333 -0.17167,-0.16833 -0.305,-0.225v0v0c-0.13333,-0.05667 -0.29,-0.085 -0.47,-0.085v0v0c-0.23333,0 -0.425,0.06333 -0.575,0.19v0v0c-0.15,0.12667 -0.225,0.27667 -0.225,0.45v0v0c0,0.30667 0.18333,0.5 0.55,0.58v0l0.78,0.17v0c0.42667,0.09333 0.755,0.265 0.985,0.515v0v0c0.23,0.25 0.345,0.555 0.345,0.915v0v0c0,0.38 -0.155,0.72333 -0.465,1.03v0v0c-0.31,0.30667 -0.74167,0.46 -1.295,0.46v0v0c-0.59333,0 -1.05667,-0.14833 -1.39,-0.445v0v0c-0.33333,-0.29667 -0.52333,-0.615 -0.57,-0.955zM304.932,132.606v4.81h-0.93v-4.81zM303.987,131.261v0v0c-0.13,-0.13 -0.195,-0.28833 -0.195,-0.475v0v0c0,-0.18667 0.065,-0.34667 0.195,-0.48v0v0c0.13,-0.13333 0.28833,-0.2 0.475,-0.2v0v0c0.18667,0 0.34667,0.065 0.48,0.195v0v0c0.13333,0.13 0.2,0.29167 0.2,0.485v0v0c0,0.18667 -0.06667,0.345 -0.2,0.475v0v0c-0.13333,0.13 -0.29333,0.195 -0.48,0.195v0v0c-0.18667,0 -0.345,-0.065 -0.475,-0.195zM307.472,134.636v0v2.78h-0.94v-4.81h0.92v0.69v0c0.32,-0.55333 0.81333,-0.83 1.48,-0.83v0v0c0.55333,0 0.97833,0.17667 1.275,0.53v0v0c0.29667,0.35333 0.445,0.81 0.445,1.37v0v3.05h-0.94v-2.89v0c0,-0.80667 -0.37333,-1.21 -1.12,-1.21v0v0c-0.35333,0 -0.62833,0.125 -0.825,0.375v0v0c-0.19667,0.25 -0.295,0.565 -0.295,0.945z" data-paper-data="{&quot;origPos&quot;:null}" fill="#000000" stroke-linecap="butt" stroke-miterlimit="10"/></g></g></svg>