<svg version="1.1" xmlns="http://www.w3.org/2000/svg" xmlns:xlink="http://www.w3.org/1999/xlink" width="33.263" height="26"><g transform="translate(-247.386,-188.541)"><g data-paper-data="{&quot;isPaintingLayer&quot;:true}" fill="none" fill-rule="nonzero" stroke="none" stroke-width="1" stroke-linecap="none" stroke-linejoin="miter" stroke-miterlimit="none" stroke-dasharray="" stroke-dashoffset="0" font-family="none" font-weight="none" font-size="none" text-anchor="none" style="mix-blend-mode: normal"><g><path d="M249.807,188.541h28.42c1.337,0 2.422,1.085 2.422,2.422v21.156c0,1.337 -1.085,2.422 -2.422,2.422h-28.42c-1.336,0 -2.421,-1.085 -2.421,-2.422v-21.156c0,-1.337 1.085,-2.422 2.421,-2.422z" data-paper-data="{&quot;origPos&quot;:null}" fill="#e8e8e8" stroke-linecap="square" stroke-miterlimit="2"/><path d="M262.296,201.93v0l-0.672,-1.134l2.674,-2.464h-4.34v-1.26h6.16v1.232l-2.59,2.394v0c0.73733,0 1.38833,0.24267 1.953,0.728v0v0c0.56467,0.48533 0.847,1.162 0.847,2.03v0v0c0,0.80267 -0.294,1.48867 -0.882,2.058v0v0c-0.588,0.56933 -1.39067,0.854 -2.408,0.854v0v0c-0.99867,0 -1.799,-0.27767 -2.401,-0.833v0v0c-0.602,-0.55533 -0.92633,-1.22967 -0.973,-2.023v0l1.344,-0.308v0c0.028,0.588 0.231,1.06167 0.609,1.421v0v0c0.378,0.35933 0.847,0.539 1.407,0.539v0v0c0.59733,0 1.06633,-0.161 1.407,-0.483v0v0c0.34067,-0.322 0.511,-0.721 0.511,-1.197v0v0c0,-0.55067 -0.182,-0.97067 -0.546,-1.26v0v0c-0.364,-0.28933 -0.798,-0.434 -1.302,-0.434v0v0c-0.27067,0 -0.53667,0.04667 -0.798,0.14z" data-paper-data="{&quot;origPos&quot;:null}" fill="#000000" stroke-linecap="butt" stroke-miterlimit="10"/></g></g></g></svg>