<svg version="1.1" xmlns="http://www.w3.org/2000/svg" xmlns:xlink="http://www.w3.org/1999/xlink" width="33.263" height="26"><g transform="translate(-205.386,-188.541)"><g data-paper-data="{&quot;isPaintingLayer&quot;:true}" fill="none" fill-rule="nonzero" stroke="none" stroke-width="1" stroke-linecap="none" stroke-linejoin="miter" stroke-miterlimit="none" stroke-dasharray="" stroke-dashoffset="0" font-family="none" font-weight="none" font-size="none" text-anchor="none" style="mix-blend-mode: normal"><path d="M207.807,188.541h28.42c1.337,0 2.422,1.085 2.422,2.422v21.156c0,1.337 -1.085,2.422 -2.422,2.422h-28.42c-1.336,0 -2.421,-1.085 -2.421,-2.422v-21.156c0,-1.337 1.085,-2.422 2.421,-2.422z" data-paper-data="{&quot;origPos&quot;:null}" fill="#e8e8e8" stroke-linecap="square" stroke-miterlimit="2"/><path d="M219.288,200.334v0l-1.372,-0.168v0c-0.00933,-0.084 -0.014,-0.20533 -0.014,-0.364v0v0c0,-0.812 0.28467,-1.505 0.854,-2.079v0v0c0.56933,-0.574 1.33,-0.861 2.282,-0.861v0v0c0.94267,0 1.68933,0.26833 2.24,0.805v0v0c0.55067,0.53667 0.826,1.197 0.826,1.981v0v0c0,1.148 -0.56933,2.08133 -1.708,2.8v0l-1.792,1.148v0c-0.644,0.41067 -1.01267,0.83533 -1.106,1.274v0h4.662v1.274h-6.356v0c0.01867,-0.76533 0.19367,-1.43733 0.525,-2.016v0v0c0.33133,-0.57867 0.875,-1.11067 1.631,-1.596v0l1.512,-0.98v0c0.83067,-0.532 1.246,-1.162 1.246,-1.89v0v0c0,-0.448 -0.14933,-0.826 -0.448,-1.134v0v0c-0.29867,-0.308 -0.71867,-0.462 -1.26,-0.462v0v0c-0.56933,0 -1.00333,0.17267 -1.302,0.518v0v0c-0.29867,0.34533 -0.448,0.79333 -0.448,1.344v0v0c0,0.084 0.00933,0.21933 0.028,0.406z" data-paper-data="{&quot;origPos&quot;:null}" fill="#000000" stroke-linecap="butt" stroke-miterlimit="10"/></g></g></svg>