<svg version="1.1" xmlns="http://www.w3.org/2000/svg" xmlns:xlink="http://www.w3.org/1999/xlink" width="33.263" height="26"><g transform="translate(-205.386,-223.541)"><g data-paper-data="{&quot;isPaintingLayer&quot;:true}" fill="none" fill-rule="nonzero" stroke="none" stroke-width="1" stroke-linecap="none" stroke-linejoin="miter" stroke-miterlimit="none" stroke-dasharray="" stroke-dashoffset="0" font-family="none" font-weight="none" font-size="none" text-anchor="none" style="mix-blend-mode: normal"><path d="M207.807,223.541h28.42c1.337,0 2.422,1.085 2.422,2.422v21.156c0,1.337 -1.085,2.422 -2.422,2.422h-28.42c-1.336,0 -2.421,-1.085 -2.421,-2.422v-21.156c0,-1.337 1.085,-2.422 2.421,-2.422z" data-paper-data="{&quot;origPos&quot;:null}" fill="#e8e8e8" stroke-linecap="square" stroke-miterlimit="2"/><path d="M217.671,238.68v0l1.316,-0.392v0c0.03733,0.56 0.245,1.01267 0.623,1.358v0v0c0.378,0.34533 0.85167,0.518 1.421,0.518v0v0c0.55067,0 1.01267,-0.168 1.386,-0.504v0v0c0.37333,-0.336 0.56,-0.77933 0.56,-1.33v0v0c0,-0.59733 -0.18667,-1.05933 -0.56,-1.386v0v0c-0.37333,-0.32667 -0.84,-0.49 -1.4,-0.49v0v0c-0.68133,0 -1.232,0.21933 -1.652,0.658v0v0c-0.13067,-0.04667 -0.34533,-0.13067 -0.644,-0.252v0v0c-0.29867,-0.12133 -0.532,-0.21467 -0.7,-0.28v0l1.176,-4.508h4.788v1.26h-3.878l-0.672,2.604v0c0.40133,-0.448 1.01733,-0.672 1.848,-0.672v0v0c0.90533,0 1.645,0.27067 2.219,0.812v0v0c0.574,0.54133 0.861,1.274 0.861,2.198v0v0c0,0.87733 -0.308,1.61233 -0.924,2.205v0v0c-0.616,0.59267 -1.41867,0.889 -2.408,0.889v0v0c-0.93333,0 -1.71033,-0.26133 -2.331,-0.784v0v0c-0.62067,-0.52267 -0.96367,-1.15733 -1.029,-1.904z" data-paper-data="{&quot;origPos&quot;:null}" fill="#000000" stroke-linecap="butt" stroke-miterlimit="10"/></g></g></svg>