<svg version="1.1" xmlns="http://www.w3.org/2000/svg" xmlns:xlink="http://www.w3.org/1999/xlink" width="33.263" height="26"><g transform="translate(-205.386,-258.541)"><g data-paper-data="{&quot;isPaintingLayer&quot;:true}" fill="none" fill-rule="nonzero" stroke="none" stroke-width="1" stroke-linecap="none" stroke-linejoin="miter" stroke-miterlimit="none" stroke-dasharray="" stroke-dashoffset="0" font-family="none" font-weight="none" font-size="none" text-anchor="none" style="mix-blend-mode: normal"><path d="M207.807,258.541h28.42c1.337,0 2.422,1.085 2.422,2.422v21.156c0,1.337 -1.085,2.422 -2.422,2.422h-28.42c-1.336,0 -2.421,-1.085 -2.421,-2.422v-21.156c0,-1.337 1.085,-2.422 2.421,-2.422z" data-paper-data="{&quot;origPos&quot;:null}" fill="#e8e8e8" stroke-linecap="square" stroke-miterlimit="2"/><path d="M221.017,270.936v0v0c0.48533,-0.00933 0.88667,-0.14933 1.204,-0.42v0v0c0.31733,-0.27067 0.476,-0.62533 0.476,-1.064v0v0c0,-0.41067 -0.154,-0.756 -0.462,-1.036v0v0c-0.308,-0.28 -0.714,-0.42 -1.218,-0.42v0v0c-0.504,0 -0.91,0.14 -1.218,0.42v0v0c-0.308,0.28 -0.462,0.62533 -0.462,1.036v0v0c0,0.43867 0.15867,0.79333 0.476,1.064v0v0c0.31733,0.27067 0.71867,0.41067 1.204,0.42zM219.624,274.73v0v0c0.34067,0.28933 0.805,0.434 1.393,0.434v0v0c0.588,0 1.05233,-0.14467 1.393,-0.434v0v0c0.34067,-0.28933 0.511,-0.65333 0.511,-1.092v0v0c0,-0.448 -0.17033,-0.819 -0.511,-1.113v0v0c-0.34067,-0.294 -0.805,-0.441 -1.393,-0.441v0v0c-0.588,0 -1.05233,0.147 -1.393,0.441v0v0c-0.34067,0.294 -0.511,0.665 -0.511,1.113v0v0c0,0.43867 0.17033,0.80267 0.511,1.092zM223.425,275.619v0v0c-0.588,0.49 -1.39067,0.735 -2.408,0.735v0v0c-1.01733,0 -1.82,-0.245 -2.408,-0.735v0v0c-0.588,-0.49 -0.882,-1.113 -0.882,-1.869v0v0c0,-0.532 0.161,-0.99633 0.483,-1.393v0v0c0.322,-0.39667 0.735,-0.679 1.239,-0.847v0v0c-0.42933,-0.15867 -0.784,-0.43167 -1.064,-0.819v0v0c-0.28,-0.38733 -0.42,-0.82367 -0.42,-1.309v0v0c0,-0.73733 0.28933,-1.34167 0.868,-1.813v0v0c0.57867,-0.47133 1.30667,-0.707 2.184,-0.707v0v0c0.87733,0 1.60533,0.23567 2.184,0.707v0v0c0.57867,0.47133 0.868,1.07567 0.868,1.813v0v0c0,0.476 -0.14,0.91 -0.42,1.302v0v0c-0.28,0.392 -0.63467,0.66733 -1.064,0.826v0v0c0.504,0.15867 0.917,0.43867 1.239,0.84v0v0c0.322,0.40133 0.483,0.868 0.483,1.4v0v0c0,0.756 -0.294,1.379 -0.882,1.869z" data-paper-data="{&quot;origPos&quot;:null}" fill="#000000" stroke-linecap="butt" stroke-miterlimit="10"/></g></g></svg>